<svg width="18" height="21" viewBox="0 0 18 21" fill="none" xmlns="http://www.w3.org/2000/svg">
<path d="M6 14.25V10.5H5.225C5.025 10.5 4.85434 10.429 4.713 10.287C4.571 10.1457 4.5 9.96667 4.5 9.75001C4.5 9.53334 4.571 9.35401 4.713 9.21201C4.85434 9.07067 5.03334 9.00001 5.25 9.00001H6.5C6.78334 9.00001 7.021 9.09567 7.213 9.28701C7.40434 9.47901 7.5 9.71667 7.5 10V14.275C7.5 14.475 7.42934 14.6457 7.288 14.787C7.146 14.929 6.96667 15 6.75 15C6.53334 15 6.35434 14.929 6.213 14.787C6.071 14.6457 6 14.4667 6 14.25ZM9.5 15C9.21667 15 8.97934 14.904 8.788 14.712C8.596 14.5207 8.5 14.2833 8.5 14V10C8.5 9.71667 8.596 9.47901 8.788 9.28701C8.97934 9.09567 9.21667 9.00001 9.5 9.00001H11.5C11.7833 9.00001 12.021 9.09567 12.213 9.28701C12.4043 9.47901 12.5 9.71667 12.5 10V14C12.5 14.2833 12.4043 14.5207 12.213 14.712C12.021 14.904 11.7833 15 11.5 15H9.5ZM10 13.5H11V10.5H10V13.5ZM2.05 12.875C2.26667 14.625 3.02934 16.0833 4.338 17.25C5.646 18.4167 7.2 19 9 19C10.95 19 12.604 18.3207 13.962 16.962C15.3207 15.604 16 13.95 16 12C16 10.05 15.3207 8.39567 13.962 7.03701C12.604 5.67901 10.95 5.00001 9 5.00001V6.80001C9 7.03334 8.896 7.18734 8.688 7.26201C8.47933 7.33734 8.3 7.30001 8.15 7.15001L5.35 4.35001C5.25 4.25001 5.2 4.13334 5.2 4.00001C5.2 3.86667 5.25 3.75001 5.35 3.65001L8.15 0.850006C8.3 0.700006 8.47933 0.662339 8.688 0.737006C8.896 0.812339 9 0.966673 9 1.20001V3.00001C10.25 3.00001 11.421 3.23767 12.513 3.71301C13.6043 4.18767 14.5543 4.82901 15.363 5.63701C16.171 6.44567 16.8127 7.39567 17.288 8.48701C17.7627 9.57901 18 10.75 18 12C18 13.25 17.7627 14.4207 17.288 15.512C16.8127 16.604 16.171 17.554 15.363 18.362C14.5543 19.1707 13.6043 19.8127 12.513 20.288C11.421 20.7627 10.25 21 9 21C6.68334 21 4.68767 20.254 3.013 18.762C1.33767 17.2707 0.358336 15.3833 0.0750023 13.1C0.041669 12.8 0.129336 12.5417 0.338002 12.325C0.546002 12.1083 0.808336 12 1.125 12C1.35834 12 1.56267 12.0833 1.738 12.25C1.91267 12.4167 2.01667 12.625 2.05 12.875Z" fill="#F0F0FF"/>
</svg>
