<svg width="18" height="21" viewBox="0 0 18 21" fill="none" xmlns="http://www.w3.org/2000/svg">
<path d="M6.75 15C6.53333 15 6.35433 14.929 6.213 14.787C6.071 14.6457 6 14.4667 6 14.25V10.5H5.25C5.03333 10.5 4.85433 10.429 4.713 10.287C4.571 10.1457 4.5 9.96667 4.5 9.75C4.5 9.53333 4.571 9.354 4.713 9.212C4.85433 9.07067 5.03333 9 5.25 9H6.5C6.78333 9 7.021 9.09567 7.213 9.287C7.40433 9.479 7.5 9.71667 7.5 10V14.25C7.5 14.4667 7.42933 14.6457 7.288 14.787C7.146 14.929 6.96667 15 6.75 15ZM9.5 15C9.21667 15 8.97933 14.904 8.788 14.712C8.596 14.5207 8.5 14.2833 8.5 14V10C8.5 9.71667 8.596 9.479 8.788 9.287C8.97933 9.09567 9.21667 9 9.5 9H11.5C11.7833 9 12.021 9.09567 12.213 9.287C12.4043 9.479 12.5 9.71667 12.5 10V14C12.5 14.2833 12.4043 14.5207 12.213 14.712C12.021 14.904 11.7833 15 11.5 15H9.5ZM10 13.5H11V10.5H10V13.5ZM9 21C7.75 21 6.57933 20.7627 5.488 20.288C4.396 19.8127 3.446 19.1707 2.638 18.362C1.82933 17.554 1.18733 16.604 0.712 15.512C0.237333 14.4207 0 13.25 0 12C0 10.75 0.237333 9.579 0.712 8.487C1.18733 7.39567 1.82933 6.44567 2.638 5.637C3.446 4.829 4.396 4.18767 5.488 3.713C6.57933 3.23767 7.75 3 9 3H9.15L8.3 2.15C8.11667 1.96667 8.01667 1.74167 8 1.475C7.98333 1.20833 8.08333 0.966667 8.3 0.75C8.5 0.55 8.73767 0.445667 9.013 0.437C9.28767 0.429 9.525 0.525 9.725 0.725L12.3 3.3C12.4 3.4 12.471 3.50833 12.513 3.625C12.5543 3.74167 12.575 3.86667 12.575 4C12.575 4.13333 12.5543 4.25833 12.513 4.375C12.471 4.49167 12.4 4.6 12.3 4.7L9.725 7.275C9.54167 7.45833 9.30433 7.54567 9.013 7.537C8.721 7.529 8.48333 7.43333 8.3 7.25C8.11667 7.06667 8.025 6.83333 8.025 6.55C8.025 6.26667 8.11667 6.03333 8.3 5.85L9.15 5H9C7.05 5 5.396 5.679 4.038 7.037C2.67933 8.39567 2 10.05 2 12C2 13.95 2.67933 15.604 4.038 16.962C5.396 18.3207 7.05 19 9 19C10.7833 19 12.325 18.4293 13.625 17.288C14.925 16.146 15.6917 14.7167 15.925 13C15.9583 12.7167 16.075 12.479 16.275 12.287C16.475 12.0957 16.7167 12 17 12C17.2833 12 17.5207 12.1 17.712 12.3C17.904 12.5 17.9833 12.7333 17.95 13C17.7 15.2667 16.7293 17.1667 15.038 18.7C13.346 20.2333 11.3333 21 9 21Z" fill="#F0F0FF"/>
</svg>
