<svg width="13" height="7" viewBox="0 0 13 7" fill="none" xmlns="http://www.w3.org/2000/svg">
<path d="M3.375 6.625C2.51042 6.625 1.77354 6.32021 1.16438 5.71062C0.554792 5.10146 0.25 4.36458 0.25 3.5C0.25 2.63542 0.554792 1.89833 1.16438 1.28875C1.77354 0.679583 2.51042 0.375 3.375 0.375H5.25C5.42708 0.375 5.57563 0.434792 5.69563 0.554375C5.81521 0.674375 5.875 0.822917 5.875 1C5.875 1.17708 5.81521 1.32542 5.69563 1.445C5.57563 1.565 5.42708 1.625 5.25 1.625H3.375C2.85417 1.625 2.41146 1.80729 2.04688 2.17188C1.68229 2.53646 1.5 2.97917 1.5 3.5C1.5 4.02083 1.68229 4.46354 2.04688 4.82812C2.41146 5.19271 2.85417 5.375 3.375 5.375H5.25C5.42708 5.375 5.57563 5.43479 5.69563 5.55437C5.81521 5.67437 5.875 5.82292 5.875 6C5.875 6.17708 5.81521 6.32542 5.69563 6.445C5.57563 6.565 5.42708 6.625 5.25 6.625H3.375ZM4.625 4.125C4.44792 4.125 4.29958 4.065 4.18 3.945C4.06 3.82542 4 3.67708 4 3.5C4 3.32292 4.06 3.17437 4.18 3.05437C4.29958 2.93479 4.44792 2.875 4.625 2.875H8.375C8.55208 2.875 8.70063 2.93479 8.82063 3.05437C8.94021 3.17437 9 3.32292 9 3.5C9 3.67708 8.94021 3.82542 8.82063 3.945C8.70063 4.065 8.55208 4.125 8.375 4.125H4.625ZM7.75 6.625C7.57292 6.625 7.42458 6.565 7.305 6.445C7.185 6.32542 7.125 6.17708 7.125 6C7.125 5.82292 7.185 5.67437 7.305 5.55437C7.42458 5.43479 7.57292 5.375 7.75 5.375H9.625C10.1458 5.375 10.5885 5.19271 10.9531 4.82812C11.3177 4.46354 11.5 4.02083 11.5 3.5C11.5 2.97917 11.3177 2.53646 10.9531 2.17188C10.5885 1.80729 10.1458 1.625 9.625 1.625H7.75C7.57292 1.625 7.42458 1.565 7.305 1.445C7.185 1.32542 7.125 1.17708 7.125 1C7.125 0.822917 7.185 0.674375 7.305 0.554375C7.42458 0.434792 7.57292 0.375 7.75 0.375H9.625C10.4896 0.375 11.2267 0.679583 11.8363 1.28875C12.4454 1.89833 12.75 2.63542 12.75 3.5C12.75 4.36458 12.4454 5.10146 11.8363 5.71062C11.2267 6.32021 10.4896 6.625 9.625 6.625H7.75Z" fill="#C5C5D9"/>
</svg>
