<svg width="15" height="8" viewBox="0 0 15 8" fill="none" xmlns="http://www.w3.org/2000/svg">
<path d="M3.4375 7.4375C2.47917 7.4375 1.66667 7.10417 1 6.4375C0.333333 5.77083 0 4.95833 0 4C0 3.04167 0.333333 2.22917 1 1.5625C1.66667 0.895834 2.47917 0.5625 3.4375 0.5625C3.82292 0.5625 4.19271 0.630208 4.54688 0.765625C4.90104 0.901042 5.21875 1.09375 5.5 1.34375L6.5625 2.3125L5.625 3.15625L4.65625 2.28125C4.48958 2.13542 4.30208 2.02083 4.09375 1.9375C3.88542 1.85417 3.66667 1.8125 3.4375 1.8125C2.83333 1.8125 2.31771 2.02604 1.89062 2.45312C1.46354 2.88021 1.25 3.39583 1.25 4C1.25 4.60417 1.46354 5.11979 1.89062 5.54688C2.31771 5.97396 2.83333 6.1875 3.4375 6.1875C3.66667 6.1875 3.88542 6.14583 4.09375 6.0625C4.30208 5.97917 4.48958 5.86458 4.65625 5.71875L9.5 1.34375C9.78125 1.09375 10.099 0.901042 10.4531 0.765625C10.8073 0.630208 11.1771 0.5625 11.5625 0.5625C12.5208 0.5625 13.3333 0.895834 14 1.5625C14.6667 2.22917 15 3.04167 15 4C15 4.95833 14.6667 5.77083 14 6.4375C13.3333 7.10417 12.5208 7.4375 11.5625 7.4375C11.1771 7.4375 10.8073 7.36979 10.4531 7.23437C10.099 7.09896 9.78125 6.90625 9.5 6.65625L8.4375 5.6875L9.375 4.84375L10.3438 5.71875C10.5104 5.86458 10.6979 5.97917 10.9062 6.0625C11.1146 6.14583 11.3333 6.1875 11.5625 6.1875C12.1667 6.1875 12.6823 5.97396 13.1094 5.54688C13.5365 5.11979 13.75 4.60417 13.75 4C13.75 3.39583 13.5365 2.88021 13.1094 2.45312C12.6823 2.02604 12.1667 1.8125 11.5625 1.8125C11.3333 1.8125 11.1146 1.85417 10.9062 1.9375C10.6979 2.02083 10.5104 2.13542 10.3438 2.28125L5.5 6.65625C5.21875 6.90625 4.90104 7.09896 4.54688 7.23437C4.19271 7.36979 3.82292 7.4375 3.4375 7.4375Z" fill="#36AAF9"/>
</svg>
