<svg width="13" height="12" viewBox="0 0 13 12" fill="none" xmlns="http://www.w3.org/2000/svg">
<path d="M8.59375 11.1875C8.38542 11.2708 8.19271 11.2448 8.01562 11.1094C7.83854 10.974 7.75 10.7865 7.75 10.5469C7.75 10.4323 7.78396 10.3308 7.85188 10.2425C7.91937 10.1538 8.00521 10.0886 8.10938 10.0469C8.94271 9.71355 9.61208 9.1823 10.1175 8.45314C10.6225 7.72397 10.875 6.90105 10.875 5.98439C10.875 5.06772 10.6225 4.2448 10.1175 3.51564C9.61208 2.78647 8.94271 2.25522 8.10938 1.92189C7.99479 1.88022 7.90625 1.81251 7.84375 1.71876C7.78125 1.62501 7.75 1.52084 7.75 1.40626C7.75 1.17709 7.83854 0.994803 8.01562 0.859387C8.19271 0.72397 8.38542 0.697928 8.59375 0.781262C9.65625 1.20834 10.5104 1.89064 11.1562 2.82814C11.8021 3.76564 12.125 4.81772 12.125 5.98439C12.125 7.15105 11.8021 8.20314 11.1562 9.14064C10.5104 10.0781 9.65625 10.7604 8.59375 11.1875ZM1.5 7.87501C1.32292 7.87501 1.17458 7.81501 1.055 7.69501C0.935 7.57543 0.875 7.42709 0.875 7.25001V4.75001C0.875 4.57293 0.935 4.42439 1.055 4.30439C1.17458 4.1848 1.32292 4.12501 1.5 4.12501H3.375L5.4375 2.06251C5.63542 1.86459 5.86188 1.82022 6.11688 1.92939C6.37229 2.03897 6.5 2.23439 6.5 2.51564V9.48439C6.5 9.76564 6.37229 9.96084 6.11688 10.07C5.86188 10.1796 5.63542 10.1354 5.4375 9.93751L3.375 7.87501H1.5ZM7.75 8.50001V3.46876C8.21875 3.68751 8.59625 4.02605 8.8825 4.48439C9.16917 4.94272 9.3125 5.44793 9.3125 6.00001C9.3125 6.55209 9.16917 7.05209 8.8825 7.50001C8.59625 7.94793 8.21875 8.28126 7.75 8.50001Z" fill="#F0F0FF"/>
</svg>
